<svg
  xmlns="http://www.w3.org/2000/svg"
  viewBox="0 0 64 64"
  width="200"
  height="200"
>
  <g fill="none" stroke="red" stroke-width="2">
    <path d="M32 10 C28 15, 22 20, 22 25 C22 30, 32 30, 32 25 C32 30, 42 30, 42 25 C42 20, 36 15, 32 10 Z" />
    <path d="M32 25 C28 30, 22 35, 22 40 C22 45, 32 45, 32 40 C32 45, 42 45, 42 40 C42 35, 36 30, 32 25 Z" />
    <path d="M32 40 C28 45, 22 50, 22 55 C22 60, 32 60, 32 55 C32 60, 42 60, 42 55 C42 50, 36 45, 32 40 Z" />
  </g>
  <line x1="32" y1="60" x2="32" y2="80" stroke="green" stroke-width="4" />
</svg>